<?xml version="1.0" standalone="no"?><!DOCTYPE svg PUBLIC "-//W3C//DTD SVG 1.1//EN" "http://www.w3.org/Graphics/SVG/1.1/DTD/svg11.dtd"><svg t="1676604833818" class="icon" viewBox="0 0 1024 1024" version="1.1" xmlns="http://www.w3.org/2000/svg" p-id="3961" xmlns:xlink="http://www.w3.org/1999/xlink" width="200" height="200"><path d="M793.6 352 230.4 352C140.8 352 64 416 64 499.2l0 12.8c0 83.2 76.8 153.6 166.4 153.6l569.6 0c89.6 0 166.4-70.4 166.4-153.6L966.4 505.6C960 422.4 883.2 352 793.6 352zM390.4 608 364.8 608l-89.6-128 0 128L249.6 608l0-192 19.2 0 89.6 121.6L358.4 416l32 0L390.4 608zM518.4 441.6 441.6 448l0 44.8 57.6 0 0 25.6L441.6 518.4 441.6 576l76.8 0 0 32L416 608l0-192 102.4 0L518.4 441.6zM723.2 608l-25.6 0-38.4-140.8L614.4 608 588.8 608l-51.2-192 38.4 0 38.4 134.4 38.4-134.4 19.2 0 38.4 134.4 32-134.4 38.4 0L723.2 608z" fill="#FF6666" p-id="3962"></path></svg>