<?xml version="1.0" standalone="no"?><!DOCTYPE svg PUBLIC "-//W3C//DTD SVG 1.1//EN" "http://www.w3.org/Graphics/SVG/1.1/DTD/svg11.dtd"><svg t="1675219297313" class="icon" viewBox="0 0 1024 1024" version="1.1" xmlns="http://www.w3.org/2000/svg" p-id="3176" xmlns:xlink="http://www.w3.org/1999/xlink" width="200" height="200"><path d="M464.2816 725.474743l396.580571-328.279772c4.037486-3.364571 7.109486-7.811657 8.835658-12.829257l94.193371-272.822857c5.178514-15.067429-2.647771-31.524571-17.466514-36.790857a27.999086 27.999086 0 0 0-17.744457-0.321829l-267.819886 84.362972a28.423314 28.423314 0 0 0-12.551314 8.045714L302.738286 550.224457l-6.685257-7.2704c-20.231314-22.016-57.387886-23.259429-78.994286-2.677028l-41.1648 39.175314a57.504914 57.504914 0 0 0-2.618514 80.252343l24.619885 26.7264-122.528914 116.545828a53.920914 53.920914 0 0 0-16.822857 37.653943 53.979429 53.979429 0 0 0 14.306743 38.721829l50.176 54.432914a52.589714 52.589714 0 0 0 75.117714 2.545371l122.587429-116.604342 24.605257 26.7264a55.647086 55.647086 0 0 0 40.799085 17.949257c14.2336 0 27.794286-5.441829 38.180572-15.316115l41.150171-39.160685a56.714971 56.714971 0 0 0 17.700572-39.570286 57.051429 57.051429 0 0 0-15.067429-40.682057l-3.832686-4.169143v-0.014629zM678.180571 221.578971l202.283886-63.488-71.358171 205.984915-385.258057 317.805714-81.905372-88.546743 336.223086-371.755886zM162.230857 894.229943l-47.030857-50.058972 123.0848-119.808L285.257143 775.899429l-123.026286 118.330514z m224.109714-99.093943l-171.944228-186.806857 39.936-39.701943 172.6464 187.538286-40.623543 38.970514h-0.014629z" fill="#697EFF" p-id="3177"></path><path d="M804.483657 539.004343l2.296686 2.048 41.223314 39.058286a56.539429 56.539429 0 0 1 17.451886 36.0448l0.2048 3.452342v3.4816a56.5248 56.5248 0 0 1-12.814629 34.523429l-2.267428 2.618514-24.634515 26.624 122.733715 116.399543a53.906286 53.906286 0 0 1 16.603428 34.304l0.190172 3.291429a54.008686 54.008686 0 0 1-12.1856 36.132571l-2.1504 2.486857-50.234515 54.330515A53.101714 53.101714 0 0 1 862.090971 950.857143a52.560457 52.560457 0 0 1-33.850514-12.317257l-2.516114-2.2528-122.704457-116.355657-24.649143 26.682514A55.939657 55.939657 0 0 1 637.513143 864.548571a55.266743 55.266743 0 0 1-35.766857-13.1072l-2.4576-2.194285-41.223315-39.058286a56.685714 56.685714 0 0 1-17.656685-39.5264 56.671086 56.671086 0 0 1 12.814628-38.005029l2.267429-2.589257 172.192914-186.411885c19.616914-21.152914 54.915657-23.069257 76.8-4.651886z m-19.236571 185.475657L738.742857 775.460571l123.552914 118.784 46.518858-50.9952-123.582172-118.784z m-16.896-141.502171l-171.300572 188.796342 40.565029 37.595429 172.002743-188.181943-41.2672-38.209828zM59.8016 107.885714a28.935314 28.935314 0 0 1 36.117943-18.8416l272.106057 83.368229c4.900571 1.492114 9.289143 4.242286 12.741486 8.001828l102.897371 111.060115-42.5984 38.531657-97.601828-105.384229L133.558857 160.329143l74.020572 208.559543 105.559771 84.962743-36.512914 44.251428-111.835429-90.038857a28.540343 28.540343 0 0 1-9.0112-12.682971L60.123429 125.7472a28.218514 28.218514 0 0 1-0.321829-17.846857z" fill="#4DEDFD" p-id="3178"></path></svg>